<?xml version="1.0" encoding="UTF-8"?>
<svg version="1.1" xmlns="http://www.w3.org/2000/svg" width="1024" height="1024">
<path d="M0 0 C337.92 0 675.84 0 1024 0 C1024 337.92 1024 675.84 1024 1024 C686.08 1024 348.16 1024 0 1024 C0 686.08 0 348.16 0 0 Z " fill="#FDFDFD" transform="translate(0,0)"/>
<path d="M0 0 C1.6922196 0.01024782 3.38443966 0.02041954 5.07666016 0.03051758 C9.08570147 0.0592065 13.09427679 0.10510173 17.10302734 0.1607666 C18.83294717 0.18363864 20.56295766 0.1994682 22.29296875 0.21386719 C75.33955353 0.78873675 141.62546799 17.13901632 181.67218971 53.59600163 C185.66333894 57.69320323 186.81579558 60.64813679 186.871521 66.34111023 C186.84994934 67.24166641 186.82837769 68.1422226 186.80615234 69.07006836 C186.8070285 70.03669403 186.80790466 71.0033197 186.80880737 71.99923706 C186.80464621 75.17611109 186.75806244 78.35084123 186.7109375 81.52734375 C186.69974017 83.73693183 186.69120252 85.94653486 186.68521118 88.15614319 C186.66235551 93.9581144 186.60345914 99.75917743 186.5369873 105.56079102 C186.47549511 111.48636593 186.44818128 117.41208828 186.41796875 123.33789062 C186.35371376 134.95482504 186.25137282 146.57108685 186.125 158.1875 C184.805 158.1875 183.485 158.1875 182.125 158.1875 C181.889021 157.44814209 181.65304199 156.70878418 181.40991211 155.94702148 C174.93670325 135.59582123 174.93670325 135.59582123 166.125 116.1875 C165.80096191 115.56439941 165.47692383 114.94129883 165.14306641 114.29931641 C142.28909946 70.63946205 104.29000194 35.49368985 57.125 20.1875 C56.02043457 19.82615967 56.02043457 19.82615967 54.89355469 19.45751953 C27.12719618 10.50644065 -2.04688458 8.79313794 -30.875 13.1875 C-31.54789063 13.28401855 -32.22078125 13.38053711 -32.9140625 13.47998047 C-64.32100834 18.09552825 -95.43081708 34.83189824 -114.62109375 60.42626953 C-122.44280697 71.41260893 -127.29500542 83.2458196 -130.875 96.1875 C-131.2153125 97.39664063 -131.555625 98.60578125 -131.90625 99.8515625 C-135.75058299 115.90521232 -135.14538841 133.30465188 -130.875 149.1875 C-130.64296875 150.198125 -130.4109375 151.20875 -130.171875 152.25 C-125.97029888 168.39723373 -116.69528375 183.62887558 -105.875 196.1875 C-105.17117188 197.01765625 -104.46734375 197.8478125 -103.7421875 198.703125 C-101.5095218 201.25709684 -99.21126655 203.72789019 -96.875 206.1875 C-96.38580078 206.70924805 -95.89660156 207.23099609 -95.39257812 207.76855469 C-86.33914088 217.3705172 -76.5600903 225.46265899 -65.875 233.1875 C-64.95976562 233.85265625 -64.04453125 234.5178125 -63.1015625 235.203125 C-60.71503446 236.89985922 -58.30097521 238.54772046 -55.875 240.1875 C-54.8540625 240.89648438 -53.833125 241.60546875 -52.78125 242.3359375 C-34.16965175 255.13654293 -14.18414294 265.78849679 5.73486328 276.38134766 C9.22230649 278.23934167 12.70387728 280.10806379 16.18359375 281.98046875 C26.10456892 287.31540811 36.02796435 292.63928142 46.04492188 297.79272461 C55.99841776 302.91801938 65.71480069 308.3491434 75.35205078 314.04711914 C81.58509574 317.72852719 87.87539231 321.25824302 94.25 324.6875 C104.3694037 330.16757136 114.03563198 336.30101046 123.66992188 342.58740234 C125.80966508 343.9819804 127.95747223 345.36259263 130.109375 346.73828125 C141.24050019 353.92485973 151.68796545 362.03830985 162.125 370.1875 C163.01541992 370.88238525 163.01541992 370.88238525 163.92382812 371.59130859 C179.16415014 383.56654246 193.99537229 397.31028021 206.0234375 412.53125 C207.41247166 414.28690656 208.83430418 416.01715543 210.2890625 417.71875 C217.07726046 425.68228966 222.63990381 434.30197939 228.125 443.1875 C228.50043945 443.78965332 228.87587891 444.39180664 229.26269531 445.01220703 C254.21785018 485.37135177 261.29497833 538.62486196 250.85510254 584.70645142 C242.9786832 617.88483097 226.28724751 646.70441098 204.125 672.1875 C202.99908969 673.52006473 201.8738949 674.85323502 200.75 676.1875 C175.50785552 705.03566512 140.09032173 726.80826173 104.34765625 739.984375 C102.56206893 740.65099426 100.78124881 741.33304546 99.02612305 742.07617188 C86.87664948 747.17917459 73.88782707 750.01707223 61.125 753.1875 C60.19252441 753.42033691 59.26004883 753.65317383 58.29931641 753.89306641 C12.26122236 764.99942632 -41.84913041 763.43458362 -87.875 753.1875 C-90.13915661 752.70364821 -92.40349089 752.22062731 -94.66796875 751.73828125 C-152.28745951 739.32192016 -205.46608062 716.48504987 -252.875 681.1875 C-253.44283203 680.76533203 -254.01066406 680.34316406 -254.59570312 679.90820312 C-261.75256296 674.5425754 -268.51133278 668.84167288 -275.0625 662.75 C-275.69857178 662.15864258 -276.33464355 661.56728516 -276.98999023 660.95800781 C-287.37769929 651.13997001 -286.48012564 639.84661276 -286.875 626.1875 C-287.025373 617.35669337 -287.02031284 608.52492076 -287.00537109 599.69311523 C-286.99971462 596.32438072 -287.00304631 592.95572589 -287.00879955 589.58699417 C-287.02804947 576.37864723 -286.93570011 563.18131023 -286.46484375 549.98046875 C-286.43081451 548.96319199 -286.39678528 547.94591522 -286.36172485 546.89781189 C-285.95445411 536.88803079 -284.54079166 527.05652982 -282.875 517.1875 C-281 516.5625 -281 516.5625 -278.875 516.1875 C-276.15282053 518.90967947 -275.94001409 521.85370843 -275.1875 525.5 C-273.6469174 532.47073998 -271.69998588 539.22970562 -269.4375 546 C-269.16139893 546.83378174 -268.88529785 547.66756348 -268.60083008 548.52661133 C-260.78920852 571.52011602 -249.91808698 594.70390104 -236.875 615.1875 C-236.00727058 616.5869037 -235.14009884 617.98665333 -234.2734375 619.38671875 C-227.75448151 629.7995319 -220.55947731 639.60737611 -212.875 649.1875 C-212.4001416 649.78095215 -211.9252832 650.3744043 -211.43603516 650.98583984 C-171.72366314 700.10487876 -115.57637996 734.62640892 -53.02392578 744.83349609 C-51.14604396 745.1428495 -49.27357843 745.48472673 -47.40234375 745.83203125 C-17.76155259 751.26031843 12.76419748 748.79582788 42.125 743.1875 C43.87248535 742.86652344 43.87248535 742.86652344 45.65527344 742.5390625 C93.02640961 733.63894762 140.81617176 706.31049443 168.56640625 666.0625 C180.68396337 647.9116311 188.51249331 629.25571056 194.125 608.1875 C194.31497559 607.48238281 194.50495117 606.77726563 194.70068359 606.05078125 C200.3477419 583.1919056 199.13400125 555.56761088 192.125 533.1875 C191.79604736 532.11338867 191.79604736 532.11338867 191.46044922 531.01757812 C184.44933804 508.81310016 171.08613923 486.75369894 154.36328125 470.50390625 C152.125 468.1875 152.125 468.1875 152.125 466.1875 C151.135 465.8575 150.145 465.5275 149.125 465.1875 C147.94402147 463.77032576 146.76693045 462.34966542 145.61328125 460.91015625 C142.78614469 457.63780133 139.42073751 454.97247884 136.125 452.1875 C135.22136719 451.39601563 134.31773437 450.60453125 133.38671875 449.7890625 C96.17870627 417.38149658 51.7435634 394.04175351 8.5 370.875 C7.91382904 370.56091187 7.32765808 370.24682373 6.72372437 369.92321777 C0.73691356 366.71607453 -5.25269863 363.51448473 -11.25468445 360.33581543 C-26.11420393 352.4646832 -40.76870943 344.3293156 -55.23144531 335.74951172 C-57.68554428 334.29944475 -60.14846446 332.86639467 -62.6171875 331.44140625 C-71.95574521 326.04075714 -80.99689603 320.3153339 -89.875 314.1875 C-90.56094238 313.71554199 -91.24688477 313.24358398 -91.95361328 312.75732422 C-105.39278715 303.4805909 -118.30284992 293.84052461 -130.21875 282.65625 C-132.35049623 280.67497998 -134.51290094 278.79542973 -136.75 276.9375 C-159.02532912 257.53940089 -176.79616081 231.44860485 -186.6484375 203.6484375 C-187.34613705 201.67976935 -188.07256696 199.7194249 -188.88476562 197.79516602 C-199.58578009 169.61530027 -195.39509347 131.19772847 -183.6875 103.9375 C-173.34837052 81.07730052 -156.61687497 60.50955222 -136.875 45.1875 C-136.13507813 44.5584375 -135.39515625 43.929375 -134.6328125 43.28125 C-97.93564272 12.2981724 -47.19999518 -0.42630182 0 0 Z " fill="#201E1F" transform="translate(528.875,100.8125)"/>
<path d="M0 0 C0.99 0.33 1.98 0.66 3 1 C2.41399698 4.30187378 1.61006747 7.24768569 0.328125 10.34375 C-6.59404844 27.49315788 -11.096618 44.58588578 -13 63 C-13.16628906 64.299375 -13.16628906 64.299375 -13.3359375 65.625 C-15.78581258 86.81310882 -13.62380193 108.47312296 -8 129 C-7.67515625 130.18980469 -7.3503125 131.37960937 -7.015625 132.60546875 C-0.46230232 155.4693481 10.40682671 176.24998341 25 195 C25.64839844 195.84046875 26.29679687 196.6809375 26.96484375 197.546875 C40.49052588 214.57361823 56.06617791 229.54524074 73.33007812 242.72412109 C74.8666655 243.89812776 76.39469523 245.08331274 77.921875 246.26953125 C93.4837729 258.19888669 110.2083542 268.32268012 127.07714844 278.27490234 C129.62095609 279.77628431 132.15878523 281.28715419 134.6953125 282.80078125 C147.83747479 290.58271001 161.37299998 297.63922127 174.87767029 304.7641449 C184.02920274 309.59448098 193.145729 314.48969946 202.26171875 319.38671875 C206.71508916 321.77885525 211.17631663 324.15524657 215.64453125 326.51953125 C240.45193797 339.68712066 264.77391043 353.75832262 287 371 C287.86238281 371.66773438 288.72476562 372.33546875 289.61328125 373.0234375 C295.64351042 377.76884335 301.34286858 382.81917064 307 388 C308.01618985 388.91228021 309.0331457 389.82370773 310.05078125 390.734375 C315.74984186 395.85545018 321.18572295 401.02048392 326 407 C326.4110498 407.50934082 326.82209961 408.01868164 327.24560547 408.54345703 C333.10769037 415.8330855 338.83596567 423.193621 344 431 C344.95132813 432.42119141 344.95132813 432.42119141 345.921875 433.87109375 C363.88083801 461.74925145 372.76257864 496.47860851 366.18359375 529.35546875 C363.76117865 539.7420497 359.72184631 551.58071775 353 560 C352.01 560 351.02 560 350 560 C350.98279834 555.31280791 352.04321906 550.75010832 353.5 546.1875 C361.53541302 519.30761584 357.23136718 489.008668 345 464 C344.60651367 463.19224121 344.21302734 462.38448242 343.80761719 461.55224609 C338.3232336 450.43893874 332.49890353 439.8924415 325 430 C324.58282715 429.44296387 324.1656543 428.88592773 323.73583984 428.31201172 C317.0156891 419.3708997 309.73928614 411.06826748 302 403 C301.21753906 402.17628906 300.43507813 401.35257813 299.62890625 400.50390625 C294.13044025 394.84862125 288.20274182 389.86042545 282 385 C281.38624512 384.51515137 280.77249023 384.03030273 280.14013672 383.53076172 C254.40274548 363.2556908 226.15032488 346.8864346 197.20678711 331.65811157 C195.04087157 330.51822454 192.87671631 329.37504995 190.71289062 328.23120117 C183.92715739 324.64551126 177.13632114 321.06971093 170.33833313 317.50730896 C145.66719284 304.57480232 121.36449251 291.20824556 98 276 C96.89785156 275.28457031 95.79570312 274.56914062 94.66015625 273.83203125 C87.60431272 269.18685699 80.70423546 264.32653915 73.87255859 259.359375 C72.60473259 258.43900274 71.33413335 257.52244064 70.06103516 256.609375 C56.92301744 247.16997022 45.39361985 236.45003238 34 225 C33.13375 224.13761719 32.2675 223.27523437 31.375 222.38671875 C12.17326267 203.09023601 -3.08443185 180.40313309 -13 155 C-13.29890137 154.25202148 -13.59780273 153.50404297 -13.90576172 152.73339844 C-29.22794233 113.91934342 -31.10033378 63.00754884 -14.79248047 24.12060547 C-10.73637243 15.40568712 -5.91985584 7.56574074 0 0 Z " fill="#242223" transform="translate(326,204)"/>
<path d="M0 0 C0.33 0.66 0.66 1.32 1 2 C2.32 1.67 3.64 1.34 5 1 C4.75 2.875 4.75 2.875 4 5 C3.34 5.309375 2.68 5.61875 2 5.9375 C1.01 6.4634375 1.01 6.4634375 0 7 C-0.81171228 9.55519921 -0.81171228 9.55519921 -1 12 C-1.66 12 -2.32 12 -3 12 C-2.68950274 10.56206608 -2.3765224 9.1246682 -2.0625 7.6875 C-1.88847656 6.88699219 -1.71445312 6.08648438 -1.53515625 5.26171875 C-1 3 -1 3 0 0 Z " fill="#373636" transform="translate(680,749)"/>
<path d="M0 0 C0.99 0.33 1.98 0.66 3 1 C3 2.32 3 3.64 3 5 C0.69 5.66 -1.62 6.32 -4 7 C-2.92598892 4.08482708 -2.22189824 2.22189824 0 0 Z " fill="#323131" transform="translate(326,204)"/>
<path d="M0 0 C1.125 3.75 1.125 3.75 0 6 C-2.0625 6.625 -2.0625 6.625 -4 7 C-3.6875 5.0625 -3.6875 5.0625 -3 3 C-2.01 2.67 -1.02 2.34 0 2 C0 1.34 0 0.68 0 0 Z " fill="#1A1919" transform="translate(683,752)"/>
</svg>
