<?xml version="1.0" encoding="UTF-8"?>
<svg version="1.1" xmlns="http://www.w3.org/2000/svg" width="1024" height="1024">
<path d="M0 0 C337.92 0 675.84 0 1024 0 C1024 337.92 1024 675.84 1024 1024 C686.08 1024 348.16 1024 0 1024 C0 686.08 0 348.16 0 0 Z " fill="#FDFDFD" transform="translate(0,0)"/>
<path d="M0 0 C337.92 0 675.84 0 1024 0 C1024 337.92 1024 675.84 1024 1024 C686.08 1024 348.16 1024 0 1024 C0 686.08 0 348.16 0 0 Z M130 129 C130 380.79 130 632.58 130 892 C382.12 892 634.24 892 894 892 C894 640.21 894 388.42 894 129 C641.88 129 389.76 129 130 129 Z " fill="#FDFDFD" transform="translate(0,0)"/>
<path d="M0 0 C2.1248656 0.03191984 4.24990859 0.05578227 6.375 0.06347656 C49.29831226 0.22401651 100.68196595 14.731833 133.1171875 43.60791016 C136.23071162 46.7640853 135.67747441 50.18898674 135.65649414 54.34863281 C135.65664017 55.0999498 135.65678619 55.85126678 135.65693665 56.62535095 C135.65623871 59.11435816 135.64845189 61.60329098 135.640625 64.09228516 C135.6387604 65.81578531 135.63733669 67.53928599 135.63633728 69.26278687 C135.63251544 73.80348163 135.62268797 78.34414451 135.6116333 82.88482666 C135.60141204 87.5164751 135.59683812 92.14812869 135.59179688 96.77978516 C135.58106542 105.87094501 135.56399297 114.96208119 135.54296875 124.05322266 C134.22296875 124.05322266 132.90296875 124.05322266 131.54296875 124.05322266 C131.2284375 123.08642578 130.91390625 122.11962891 130.58984375 121.12353516 C129.26951617 117.09026981 127.91496518 113.06918151 126.54296875 109.05322266 C126.11177734 107.78865234 126.11177734 107.78865234 125.671875 106.49853516 C111.95954345 69.62614122 83.3673577 38.66934718 47.97363281 21.76342773 C38.13455554 17.27758808 28.09968071 14.31537522 17.54296875 12.05322266 C16.805625 11.88951172 16.06828125 11.72580078 15.30859375 11.55712891 C-17.99547772 4.41210648 -53.52510302 8.65375204 -82.45703125 27.05322266 C-100.23102028 39.28665623 -112.53597192 58.33455321 -117.04248047 79.3984375 C-119.50768362 95.18561013 -118.78489856 112.29828519 -112.45703125 127.05322266 C-112.18358887 127.7114502 -111.91014648 128.36967773 -111.62841797 129.04785156 C-88.67583347 182.91563194 -24.65989619 209.09966887 23.93896484 234.29541016 C53.74076903 249.76176942 83.60911692 265.88642155 110.54296875 286.05322266 C111.16059082 286.51535156 111.77821289 286.97748047 112.41455078 287.45361328 C119.92465016 293.11937013 127.00788701 299.12928317 133.8671875 305.56494141 C136.10918293 307.64983351 138.38972225 309.64432471 140.73046875 311.61572266 C160.20654732 328.60207571 177.85846794 354.9757005 184.54296875 380.05322266 C185.27187309 382.26213582 186.02886051 384.4592183 186.796875 386.65478516 C197.59550943 421.36871992 191.80560898 463.24665788 175.4296875 495.20947266 C166.5122711 512.16535519 155.02251961 526.50684405 141.54296875 540.05322266 C141.0432959 540.55692383 140.54362305 541.060625 140.02880859 541.57958984 C114.85555737 566.60802033 80.57782919 583.04504134 46.34765625 591.15087891 C44.05474786 591.69467956 41.76633357 592.25880256 39.48828125 592.86181641 C20.40276313 597.74710155 0.64929399 598.60892005 -18.95703125 598.49072266 C-20.57847046 598.48616058 -20.57847046 598.48616058 -22.23266602 598.48150635 C-91.48790565 598.19504358 -159.10656938 575.28319707 -213.45703125 532.05322266 C-214.32585937 531.38935547 -215.1946875 530.72548828 -216.08984375 530.04150391 C-218.5995392 528.10219378 -221.03458743 526.10035828 -223.45703125 524.05322266 C-224.95556641 522.82345703 -224.95556641 522.82345703 -226.484375 521.56884766 C-227.49915603 520.67125622 -228.51092943 519.77025198 -229.51953125 518.86572266 C-230.43863281 518.06779297 -231.35773438 517.26986328 -232.3046875 516.44775391 C-238.23309014 509.16227134 -235.62020879 493.70248165 -235.625 484.78759766 C-235.62822977 483.3414914 -235.63159497 481.89538544 -235.63508606 480.44927979 C-235.64102933 477.43053433 -235.64293128 474.41181728 -235.64233398 471.39306641 C-235.64225326 468.35459368 -235.64911662 465.31627346 -235.6628418 462.27783203 C-235.72901596 447.33769931 -235.71606397 432.41946588 -234.6953125 417.50634766 C-234.63433884 416.46444275 -234.57336517 415.42253784 -234.51054382 414.34906006 C-234.43399063 413.40742004 -234.35743744 412.46578003 -234.27856445 411.49560547 C-234.18609184 410.27203339 -234.18609184 410.27203339 -234.0917511 409.02374268 C-233.45703125 407.05322266 -233.45703125 407.05322266 -231.40568542 405.77557373 C-230.44110161 405.41800995 -230.44110161 405.41800995 -229.45703125 405.05322266 C-227.70483351 409.47543601 -226.21203798 413.8220016 -225.01953125 418.42822266 C-223.84188023 422.86566025 -222.36640776 427.01787983 -220.59375 431.24853516 C-219.77620739 433.26570215 -219.01434785 435.305765 -218.2890625 437.35791016 C-212.03963488 454.98826021 -204.03531459 472.58516193 -193.45703125 488.05322266 C-193.00859863 488.71225586 -192.56016602 489.37128906 -192.09814453 490.05029297 C-182.83480917 503.60475466 -172.71152987 516.11104231 -161.45703125 528.05322266 C-160.42255859 529.15150391 -160.42255859 529.15150391 -159.3671875 530.27197266 C-123.86516973 566.86300937 -72.83839683 588.53358572 -22.04377747 589.46237183 C-19.91050208 589.48519125 -17.77792473 589.4919208 -15.64453125 589.49072266 C-14.51991989 589.4913269 -14.51991989 589.4913269 -13.37258911 589.49194336 C28.0038597 589.36543822 68.96996823 576.09372065 100.54296875 549.05322266 C101.44660156 548.28365234 102.35023438 547.51408203 103.28125 546.72119141 C109.77753607 541.01560129 115.32034309 534.93714067 120.54296875 528.05322266 C121.14753906 527.26431641 121.75210937 526.47541016 122.375 525.66259766 C135.87326563 507.25864181 144.77861282 484.9399722 145.54296875 462.05322266 C145.58389648 461.06418945 145.62482422 460.07515625 145.66699219 459.05615234 C146.6045055 433.43337113 142.65169472 410.29680928 127.54296875 389.05322266 C126.91519531 388.14185547 126.28742188 387.23048828 125.640625 386.29150391 C121.64882042 380.62393186 117.33626821 375.41994669 112.6328125 370.33056641 C110.84823895 368.38588159 109.15551688 366.40392485 107.48046875 364.36572266 C104.18421213 360.50362362 100.42596429 357.30992859 96.54296875 354.05322266 C95.69089844 353.31330078 94.83882812 352.57337891 93.9609375 351.81103516 C62.83652095 325.15729404 25.39657422 306.75868551 -10.61328125 287.74462891 C-24.968443 280.16058238 -39.27420034 272.5373587 -53.28466797 264.32617188 C-55.31803396 263.13467151 -57.3576972 261.95468518 -59.3984375 260.77587891 C-79.03410206 249.32816821 -98.29816814 236.14178686 -114.84375 220.51416016 C-117.1006139 218.38886231 -119.40271529 216.3659763 -121.76953125 214.36572266 C-125.73850716 210.90100188 -129.1222596 207.12612558 -132.45703125 203.05322266 C-132.86856445 202.5540332 -133.28009766 202.05484375 -133.70410156 201.54052734 C-143.89566682 189.11519436 -152.43380527 176.00828171 -158.45703125 161.05322266 C-158.74916504 160.33344238 -159.04129883 159.61366211 -159.34228516 158.87207031 C-168.29179061 135.91765129 -167.33087809 105.75717212 -157.60400391 83.06298828 C-141.98550929 48.88891072 -114.49433612 24.30993413 -79.45703125 11.05322266 C-74.19138684 9.13493471 -68.86467524 7.51856228 -63.45703125 6.05322266 C-62.78349609 5.86775879 -62.10996094 5.68229492 -61.41601562 5.49121094 C-41.12289281 0.00593577 -20.90382939 -0.32236347 0 0 Z " fill="#1C1B1C" transform="translate(534.45703125,186.94677734375)"/>
<path d="M0 0 C252.12 0 504.24 0 764 0 C764 251.79 764 503.58 764 763 C511.88 763 259.76 763 0 763 C0 511.21 0 259.42 0 0 Z M7 8 C7 254.84 7 501.68 7 756 C254.5 756 502 756 757 756 C757 509.16 757 262.32 757 8 C509.5 8 262 8 7 8 Z " fill="#151515" transform="translate(130,129)"/>
<path d="M0 0 C0.99 0 1.98 0 3 0 C2.44799182 5.22388229 1.1259005 9.63841811 -0.875 14.5 C-3.9213779 22.23910391 -5.57807579 29.79792498 -7 38 C-7.25378418 39.04486572 -7.25378418 39.04486572 -7.51269531 40.11083984 C-9.2014171 47.30515459 -9.30522191 54.41253899 -9.26074219 61.76708984 C-9.25005323 63.86455425 -9.26067518 65.96115576 -9.2734375 68.05859375 C-9.28840051 80.06964266 -7.63123608 91.12182716 -3.9375 102.5625 C-3.63585937 103.5006958 -3.33421875 104.4388916 -3.0234375 105.40551758 C7.77930538 137.86568248 29.23653776 165.01256648 56 186 C56.5146582 186.40750488 57.02931641 186.81500977 57.55957031 187.23486328 C65.13013865 193.22266216 72.89249802 198.75151416 81 204 C81.95003906 204.63808594 82.90007812 205.27617187 83.87890625 205.93359375 C109.73575068 223.05283118 137.73789249 237.10942286 165.26855469 251.30249023 C175.35023306 256.50410811 185.26634809 261.85870064 194.95654297 267.75976562 C197.11029181 269.06693935 199.27506851 270.35443532 201.44140625 271.640625 C216.8239301 280.82821248 231.02461698 290.61890933 244 303 C245.32647307 304.13308074 246.65913697 305.25898517 248 306.375 C270.15823462 325.78634603 290.90409458 356.20191035 294 386 C294.18736567 390.25076638 294.23061735 394.495509 294.25 398.75 C294.2809375 400.42449219 294.2809375 400.42449219 294.3125 402.1328125 C294.34729483 409.59630347 293.25311018 415.90947573 291 423 C290.55596576 424.7066466 290.1175741 426.41478209 289.6875 428.125 C288.12339989 433.31648122 285.55886062 437.89591003 282 442 C281.34 442 280.68 442 280 442 C280.82781196 436.34328492 282.38898186 431.01841948 284.04296875 425.5546875 C287.70452845 410.67928055 285.85228377 393.36468166 281 379 C280.66097656 377.87464844 280.32195312 376.74929688 279.97265625 375.58984375 C273.4157755 355.26584684 261.45217927 337.59010782 246.9375 322.11328125 C245 320 245 320 242.96484375 317.42578125 C241.25824682 315.31882957 239.61851858 313.62421848 237.5625 311.875 C236.86640625 311.28203125 236.1703125 310.6890625 235.453125 310.078125 C234.23882813 309.04945313 234.23882813 309.04945313 233 308 C232.02546875 307.14921875 231.0509375 306.2984375 230.046875 305.421875 C223.2538359 299.52114631 216.28138666 294.1320357 208.76171875 289.16552734 C206.92676759 287.95155051 205.10442247 286.71986245 203.28125 285.48828125 C183.66371673 272.37591813 162.66697414 261.73930782 141.66842651 251.06115723 C127.89980002 244.05555961 114.2898723 236.88788364 101 229 C99.79512939 228.28626221 99.79512939 228.28626221 98.56591797 227.55810547 C73.98009369 212.92001507 50.87012986 196.6355588 30 177 C29.29101562 176.34515625 28.58203125 175.6903125 27.8515625 175.015625 C13.0108985 160.84127653 1.37923621 142.62100957 -7 124 C-7.31598145 123.30567871 -7.63196289 122.61135742 -7.95751953 121.89599609 C-21.49246513 91.5724455 -22.88325213 52.42154395 -11.55541992 21.09375 C-8.86899794 14.18651257 -5.31335235 5.31335235 0 0 Z " fill="#222122" transform="translate(361,267)"/>
<path d="M0 0 C1.0326802 2.78823655 1.04509293 3.8677274 0.0625 6.75 C-0.288125 7.4925 -0.63875 8.235 -1 9 C-1.66 8.34 -2.32 7.68 -3 7 C-3.99 7.495 -3.99 7.495 -5 8 C-4.67 5.69 -4.34 3.38 -4 1 C-2.02 1.495 -2.02 1.495 0 2 C0 1.34 0 0.68 0 0 Z " fill="#2D2D2D" transform="translate(649,692)"/>
<path d="M0 0 C-1.55500981 3.81684226 -4.03595495 6.19195732 -7 9 C-7.99 8.67 -8.98 8.34 -10 8 C-8.33333333 6.33333333 -6.66666667 4.66666667 -5 3 C-4.443125 2.401875 -3.88625 1.80375 -3.3125 1.1875 C-2 0 -2 0 0 0 Z " fill="#353435" transform="translate(407,229)"/>
</svg>
